REM MD5 e063911e89bfa0cf8b3dba342457dd3e
FILE "Palm Town (Japan) (Major Wave).bin" BINARY
  TRACK 01 MODE2/2352
    INDEX 01 00:00:00
  TRACK 02 AUDIO
    INDEX 00 07:33:20
    INDEX 01 07:35:20
  TRACK 03 AUDIO
    INDEX 00 11:48:57
    INDEX 01 11:50:57
REM LEADOUT 16:05:57
